<svg viewBox="0 0 800 450" xmlns="http://www.w3.org/2000/svg" font-family="Arial, Helvetica, sans-serif">
  <rect width="800" height="450" fill="white"/>

  <!-- Title -->
  <text x="400" y="30" text-anchor="middle" font-size="16" font-weight="bold" fill="#333">Figure 1 — The Ambiguity Multiplier</text>

  <!-- Single Task (Left) -->
  <text x="110" y="65" text-anchor="middle" font-size="12" font-weight="bold" fill="#4682B4">Single-Task Prompt</text>
  <rect x="60" y="75" width="100" height="40" rx="4" fill="#4682B4" opacity="0.9"/>
  <text x="110" y="100" text-anchor="middle" font-size="11" fill="white">Task 1</text>
  <!-- Single interpretation -->
  <line x1="110" y1="115" x2="110" y2="150" stroke="#D4A04A" stroke-width="2"/>
  <circle cx="110" cy="160" r="8" fill="#D4A04A" opacity="0.6"/>
  <text x="110" y="185" text-anchor="middle" font-size="10" fill="#6B7B8D">1 interpretation</text>

  <!-- Three-Task (Center) -->
  <text x="350" y="65" text-anchor="middle" font-size="12" font-weight="bold" fill="#4682B4">Three-Task Prompt</text>
  <rect x="290" y="75" width="50" height="30" rx="3" fill="#4682B4" opacity="0.9"/>
  <text x="315" y="95" text-anchor="middle" font-size="9" fill="white">T1</text>
  <rect x="345" y="75" width="50" height="30" rx="3" fill="#4682B4" opacity="0.8"/>
  <text x="370" y="95" text-anchor="middle" font-size="9" fill="white">T2</text>
  <rect x="400" y="75" width="50" height="30" rx="3" fill="#4682B4" opacity="0.7"/>
  <text x="425" y="95" text-anchor="middle" font-size="9" fill="white">T3</text>

  <!-- Branching lines from T1 -->
  <line x1="315" y1="105" x2="280" y2="135" stroke="#D4A04A" stroke-width="1.5" opacity="0.7"/>
  <line x1="315" y1="105" x2="315" y2="135" stroke="#D4A04A" stroke-width="1.5" opacity="0.7"/>
  <line x1="315" y1="105" x2="350" y2="135" stroke="#D4A04A" stroke-width="1.5" opacity="0.7"/>

  <!-- Branching lines from T2 -->
  <line x1="370" y1="105" x2="340" y2="135" stroke="#D4A04A" stroke-width="1.5" opacity="0.7"/>
  <line x1="370" y1="105" x2="370" y2="135" stroke="#D4A04A" stroke-width="1.5" opacity="0.7"/>
  <line x1="370" y1="105" x2="400" y2="135" stroke="#D4A04A" stroke-width="1.5" opacity="0.7"/>

  <!-- Branching from T3 -->
  <line x1="425" y1="105" x2="395" y2="135" stroke="#D4A04A" stroke-width="1.5" opacity="0.7"/>
  <line x1="425" y1="105" x2="425" y2="135" stroke="#D4A04A" stroke-width="1.5" opacity="0.7"/>
  <line x1="425" y1="105" x2="455" y2="135" stroke="#D4A04A" stroke-width="1.5" opacity="0.7"/>

  <!-- Sub-branches (level 2) - show explosion -->
  <g opacity="0.4" stroke="#D4A04A" stroke-width="1">
    <line x1="280" y1="135" x2="265" y2="160"/><line x1="280" y1="135" x2="280" y2="160"/><line x1="280" y1="135" x2="295" y2="160"/>
    <line x1="315" y1="135" x2="300" y2="160"/><line x1="315" y1="135" x2="315" y2="160"/><line x1="315" y1="135" x2="330" y2="160"/>
    <line x1="350" y1="135" x2="335" y2="160"/><line x1="350" y1="135" x2="350" y2="160"/><line x1="350" y1="135" x2="365" y2="160"/>
    <line x1="340" y1="135" x2="325" y2="160"/><line x1="340" y1="135" x2="340" y2="160"/><line x1="340" y1="135" x2="355" y2="160"/>
    <line x1="370" y1="135" x2="360" y2="160"/><line x1="370" y1="135" x2="370" y2="160"/><line x1="370" y1="135" x2="380" y2="160"/>
    <line x1="400" y1="135" x2="385" y2="160"/><line x1="400" y1="135" x2="400" y2="160"/><line x1="400" y1="135" x2="415" y2="160"/>
    <line x1="395" y1="135" x2="385" y2="160"/><line x1="395" y1="135" x2="395" y2="160"/><line x1="395" y1="135" x2="405" y2="160"/>
    <line x1="425" y1="135" x2="415" y2="160"/><line x1="425" y1="135" x2="425" y2="160"/><line x1="425" y1="135" x2="435" y2="160"/>
    <line x1="455" y1="135" x2="445" y2="160"/><line x1="455" y1="135" x2="455" y2="160"/><line x1="455" y1="135" x2="465" y2="160"/>
  </g>

  <text x="370" y="185" text-anchor="middle" font-size="10" fill="#6B7B8D">3³ = 27 interpretations</text>

  <!-- Inset Chart (Right) -->
  <rect x="550" y="60" width="220" height="170" rx="4" fill="none" stroke="#6B7B8D" stroke-width="1"/>
  <text x="660" y="80" text-anchor="middle" font-size="11" font-weight="bold" fill="#333">Interpretation Space Growth</text>

  <!-- Chart axes -->
  <line x1="590" y1="200" x2="750" y2="200" stroke="#6B7B8D" stroke-width="1"/>
  <line x1="590" y1="200" x2="590" y2="95" stroke="#6B7B8D" stroke-width="1"/>

  <!-- X-axis labels -->
  <text x="600" y="215" text-anchor="middle" font-size="9" fill="#6B7B8D">1</text>
  <text x="635" y="215" text-anchor="middle" font-size="9" fill="#6B7B8D">2</text>
  <text x="670" y="215" text-anchor="middle" font-size="9" fill="#6B7B8D">3</text>
  <text x="705" y="215" text-anchor="middle" font-size="9" fill="#6B7B8D">4</text>
  <text x="740" y="215" text-anchor="middle" font-size="9" fill="#6B7B8D">5</text>
  <text x="670" y="230" text-anchor="middle" font-size="10" fill="#6B7B8D">Sub-tasks</text>

  <!-- Y-axis labels -->
  <text x="580" y="200" text-anchor="end" font-size="9" fill="#6B7B8D">3</text>
  <text x="580" y="180" text-anchor="end" font-size="9" fill="#6B7B8D">9</text>
  <text x="580" y="160" text-anchor="end" font-size="9" fill="#6B7B8D">27</text>
  <text x="580" y="140" text-anchor="end" font-size="9" fill="#6B7B8D">81</text>
  <text x="580" y="105" text-anchor="end" font-size="9" fill="#6B7B8D">243</text>

  <!-- Exponential curve -->
  <polyline points="600,197 635,193 670,180 705,148 740,100" fill="none" stroke="#D4A04A" stroke-width="2.5"/>
  <circle cx="600" cy="197" r="3" fill="#D4A04A"/>
  <circle cx="635" cy="193" r="3" fill="#D4A04A"/>
  <circle cx="670" cy="180" r="3" fill="#D4A04A"/>
  <circle cx="705" cy="148" r="3" fill="#D4A04A"/>
  <circle cx="740" cy="100" r="3" fill="#D4A04A"/>

  <!-- Bottom annotation -->
  <rect x="50" y="260" width="700" height="50" rx="6" fill="#F5F5F5" stroke="#6B7B8D" stroke-width="0.5"/>
  <text x="400" y="280" text-anchor="middle" font-size="11" fill="#333" font-weight="bold">Each sub-task introduces ≈3 unstated presuppositions.</text>
  <text x="400" y="298" text-anchor="middle" font-size="11" fill="#6B7B8D">Ambiguity grows as 3ⁿ where n = number of unstated dependencies between sub-tasks.</text>

  <!-- Arrow from left to center -->
  <line x1="180" y1="140" x2="270" y2="140" stroke="#6B7B8D" stroke-width="1" stroke-dasharray="4,3"/>
  <polygon points="270,137 278,140 270,143" fill="#6B7B8D"/>
  <text x="225" y="133" text-anchor="middle" font-size="9" fill="#6B7B8D">+ complexity</text>

  <!-- Arrow from center to chart -->
  <line x1="480" y1="140" x2="540" y2="140" stroke="#6B7B8D" stroke-width="1" stroke-dasharray="4,3"/>
  <polygon points="540,137 548,140 540,143" fill="#6B7B8D"/>
</svg>
