<svg viewBox="0 0 500 500" xmlns="http://www.w3.org/2000/svg" font-family="Arial, Helvetica, sans-serif">
  <rect width="500" height="500" fill="white"/>

  <text x="250" y="28" text-anchor="middle" font-size="15" font-weight="bold" fill="#333">Figure 3 — PLFR Framework Anatomy</text>

  <!-- Right bracket -->
  <path d="M 410 50 L 420 50 L 420 400 L 410 400" fill="none" stroke="#6B7B8D" stroke-width="1.5"/>
  <text x="445" y="230" text-anchor="middle" font-size="10" fill="#6B7B8D" transform="rotate(90,445,230)">Reasoning contract (reproducible + auditable)</text>

  <!-- Prompt -->
  <rect x="70" y="50" width="320" height="50" rx="6" fill="#4682B4"/>
  <text x="230" y="73" text-anchor="middle" font-size="14" font-weight="bold" fill="white">P — Prompt</text>
  <text x="230" y="90" text-anchor="middle" font-size="10" fill="rgba(255,255,255,0.85)">Defines the reasoning entry point</text>

  <!-- Arrow -->
  <line x1="230" y1="100" x2="230" y2="118" stroke="#6B7B8D" stroke-width="2"/>
  <polygon points="225,116 230,125 235,116" fill="#6B7B8D"/>

  <!-- Logic (EMPHASIZED - 1.5x height, thicker border) -->
  <rect x="70" y="125" width="320" height="85" rx="6" fill="#D4A04A" stroke="#B8860B" stroke-width="3"/>
  <text x="230" y="152" text-anchor="middle" font-size="16" font-weight="bold" fill="white">L — Logic ★</text>
  <text x="230" y="172" text-anchor="middle" font-size="11" fill="rgba(255,255,255,0.9)">Constrains HOW the model thinks</text>
  <text x="230" y="192" text-anchor="middle" font-size="9" fill="rgba(255,255,255,0.75)">Specifies analytical method, comparison type, reasoning framework</text>
  <!-- Key indicator -->
  <rect x="80" y="135" width="60" height="18" rx="9" fill="rgba(255,255,255,0.25)"/>
  <text x="110" y="148" text-anchor="middle" font-size="8" fill="white" font-weight="bold">KEY LAYER</text>

  <!-- Arrow -->
  <line x1="230" y1="210" x2="230" y2="228" stroke="#6B7B8D" stroke-width="2"/>
  <polygon points="225,226 230,235 235,226" fill="#6B7B8D"/>

  <!-- Format -->
  <rect x="70" y="235" width="320" height="50" rx="6" fill="#A8C4D8"/>
  <text x="230" y="258" text-anchor="middle" font-size="14" font-weight="bold" fill="#333">F — Format</text>
  <text x="230" y="275" text-anchor="middle" font-size="10" fill="#555">Enforces output predictability</text>

  <!-- Arrow -->
  <line x1="230" y1="285" x2="230" y2="303" stroke="#6B7B8D" stroke-width="2"/>
  <polygon points="225,301 230,310 235,301" fill="#6B7B8D"/>

  <!-- Result -->
  <rect x="70" y="310" width="320" height="50" rx="6" fill="#6B7B8D"/>
  <text x="230" y="333" text-anchor="middle" font-size="14" font-weight="bold" fill="white">R — Result</text>
  <text x="230" y="350" text-anchor="middle" font-size="10" fill="rgba(255,255,255,0.85)">Establishes validation benchmark</text>

  <!-- Feedback arrow from Result back to Logic -->
  <path d="M 70 335 L 45 335 L 45 165 L 70 165" fill="none" stroke="#D4A04A" stroke-width="1.5" stroke-dasharray="5,3"/>
  <polygon points="68,160 60,165 68,170" fill="#D4A04A"/>
  <text x="22" y="250" text-anchor="middle" font-size="9" fill="#D4A04A" transform="rotate(-90,22,250)">Self-validation feedback</text>

  <!-- Bottom note -->
  <text x="250" y="400" text-anchor="middle" font-size="10" fill="#6B7B8D">PLFR contracts the reasoning chain,</text>
  <text x="250" y="415" text-anchor="middle" font-size="10" fill="#6B7B8D">making outputs reproducible and auditable.</text>
  <text x="250" y="440" text-anchor="middle" font-size="10" font-weight="bold" fill="#4682B4">Strength: Reproducibility | Weakness: Assumes task already scoped</text>

  <!-- Comparison callout -->
  <rect x="100" y="458" width="300" height="28" rx="4" fill="#F5F5F5" stroke="#6B7B8D" stroke-width="0.5"/>
  <text x="250" y="477" text-anchor="middle" font-size="9" fill="#6B7B8D">Compare with Figure 2: PAST constrains WHAT → PLFR constrains HOW</text>
</svg>
