<svg viewBox="0 0 700 380" xmlns="http://www.w3.org/2000/svg" font-family="Arial, Helvetica, sans-serif">
  <rect width="700" height="380" fill="white"/>

  <text x="350" y="25" text-anchor="middle" font-size="15" font-weight="bold" fill="#333">Figure 4 — PAST vs. PLFR Decision Landscape</text>

  <!-- LEFT: PAST -->
  <rect x="40" y="50" width="250" height="180" rx="8" fill="#4682B4" opacity="0.08" stroke="#4682B4" stroke-width="2"/>
  <text x="165" y="75" text-anchor="middle" font-size="16" font-weight="bold" fill="#4682B4">PAST</text>

  <!-- Spine/skeleton icon (abstract) -->
  <line x1="165" y1="88" x2="165" y2="155" stroke="#4682B4" stroke-width="3"/>
  <line x1="130" y1="100" x2="200" y2="100" stroke="#4682B4" stroke-width="2"/>
  <line x1="135" y1="120" x2="195" y2="120" stroke="#4682B4" stroke-width="2"/>
  <line x1="140" y1="140" x2="190" y2="140" stroke="#4682B4" stroke-width="2"/>
  <circle cx="165" cy="88" r="5" fill="#4682B4"/>

  <text x="165" y="175" text-anchor="middle" font-size="10" fill="#4682B4" font-weight="bold">Linearizes execution</text>
  <text x="165" y="192" text-anchor="middle" font-size="9" fill="#6B7B8D">Risk: step omission</text>
  <text x="165" y="206" text-anchor="middle" font-size="9" fill="#6B7B8D">Best for: procedural tasks</text>
  <text x="165" y="220" text-anchor="middle" font-size="9" fill="#6B7B8D">Constrains: WHAT to do</text>

  <!-- RIGHT: PLFR -->
  <rect x="410" y="50" width="250" height="180" rx="8" fill="#D4A04A" opacity="0.08" stroke="#D4A04A" stroke-width="2"/>
  <text x="535" y="75" text-anchor="middle" font-size="16" font-weight="bold" fill="#D4A04A">PLFR</text>

  <!-- Brain/network icon (abstract) -->
  <circle cx="520" cy="115" r="8" fill="none" stroke="#D4A04A" stroke-width="1.5"/>
  <circle cx="550" cy="100" r="8" fill="none" stroke="#D4A04A" stroke-width="1.5"/>
  <circle cx="545" cy="135" r="8" fill="none" stroke="#D4A04A" stroke-width="1.5"/>
  <circle cx="510" cy="145" r="8" fill="none" stroke="#D4A04A" stroke-width="1.5"/>
  <circle cx="555" cy="120" r="5" fill="#D4A04A" opacity="0.5"/>
  <line x1="525" y1="110" x2="545" y2="105" stroke="#D4A04A" stroke-width="1" opacity="0.6"/>
  <line x1="545" y1="105" x2="545" y2="130" stroke="#D4A04A" stroke-width="1" opacity="0.6"/>
  <line x1="520" y1="120" x2="515" y2="140" stroke="#D4A04A" stroke-width="1" opacity="0.6"/>
  <line x1="520" y1="120" x2="540" y2="130" stroke="#D4A04A" stroke-width="1" opacity="0.6"/>
  <line x1="545" y1="130" x2="515" y2="140" stroke="#D4A04A" stroke-width="1" opacity="0.6"/>

  <text x="535" y="175" text-anchor="middle" font-size="10" fill="#D4A04A" font-weight="bold">Contracts reasoning</text>
  <text x="535" y="192" text-anchor="middle" font-size="9" fill="#6B7B8D">Risk: wrong method</text>
  <text x="535" y="206" text-anchor="middle" font-size="9" fill="#6B7B8D">Best for: analytical tasks</text>
  <text x="535" y="220" text-anchor="middle" font-size="9" fill="#6B7B8D">Constrains: HOW to think</text>

  <!-- CENTER: Merge zone -->
  <line x1="290" y1="140" x2="330" y2="265" stroke="#6B7B8D" stroke-width="1.5"/>
  <line x1="410" y1="140" x2="370" y2="265" stroke="#6B7B8D" stroke-width="1.5"/>

  <!-- Combined element -->
  <rect x="270" y="248" width="160" height="50" rx="6" fill="#6B7B8D"/>
  <text x="350" y="268" text-anchor="middle" font-size="10" font-weight="bold" fill="white">Layered Architecture</text>
  <text x="350" y="284" text-anchor="middle" font-size="9" fill="rgba(255,255,255,0.85)">PAST decomposes → PLFR executes</text>

  <!-- Decision spectrum -->
  <rect x="70" y="320" width="560" height="40" rx="6" fill="#F5F5F5" stroke="#6B7B8D" stroke-width="0.5"/>

  <!-- Gradient bar -->
  <defs>
    <linearGradient id="spectrum" x1="0" x2="1">
      <stop offset="0%" stop-color="#4682B4"/>
      <stop offset="50%" stop-color="#6B7B8D"/>
      <stop offset="100%" stop-color="#D4A04A"/>
    </linearGradient>
  </defs>
  <rect x="90" y="330" width="520" height="8" rx="4" fill="url(#spectrum)"/>

  <!-- Spectrum labels -->
  <text x="90" y="355" text-anchor="start" font-size="8" fill="#4682B4" font-weight="bold">Procedural / multi-step</text>
  <text x="350" y="355" text-anchor="middle" font-size="8" fill="#6B7B8D" font-weight="bold">Complex agentic: USE BOTH</text>
  <text x="610" y="355" text-anchor="end" font-size="8" fill="#D4A04A" font-weight="bold">Analytical / method-sensitive</text>

  <!-- Spectrum markers -->
  <circle cx="90" cy="334" r="5" fill="#4682B4"/>
  <circle cx="350" cy="334" r="6" fill="#6B7B8D" stroke="white" stroke-width="1.5"/>
  <circle cx="610" cy="334" r="5" fill="#D4A04A"/>
</svg>
