<svg viewBox="0 0 750 550" xmlns="http://www.w3.org/2000/svg" font-family="Arial, Helvetica, sans-serif">
  <rect width="750" height="550" fill="white"/>

  <text x="375" y="25" text-anchor="middle" font-size="15" font-weight="bold" fill="#333">Figure 6 — "Confidently Structured, Silently Wrong" Failure</text>

  <!-- Data Source -->
  <rect x="225" y="40" width="300" height="100" rx="6" fill="#F5F5F5" stroke="#999" stroke-width="1.5"/>
  <text x="375" y="58" text-anchor="middle" font-size="12" font-weight="bold" fill="#333">Churn Data (Q2 vs. Q3)</text>

  <!-- Mini data table -->
  <text x="260" y="76" font-size="9" fill="#555" font-weight="bold">Tier</text>
  <text x="340" y="76" font-size="9" fill="#555" font-weight="bold">Q2</text>
  <text x="400" y="76" font-size="9" fill="#555" font-weight="bold">Q3</text>
  <text x="470" y="76" font-size="9" fill="#555" font-weight="bold">Delta</text>

  <line x1="245" y1="80" x2="510" y2="80" stroke="#CCC" stroke-width="0.5"/>

  <text x="260" y="94" font-size="9" fill="#333">Free</text>
  <text x="340" y="94" font-size="9" fill="#333">3.5%</text>
  <text x="400" y="94" font-size="9" fill="#333">9.0%</text>
  <text x="470" y="94" font-size="9" fill="#D4A04A" font-weight="bold">+5.5pp</text>

  <text x="260" y="108" font-size="9" fill="#333">Pro</text>
  <text x="340" y="108" font-size="9" fill="#333">4.8%</text>
  <text x="400" y="108" font-size="9" fill="#333">5.5%</text>
  <text x="470" y="108" font-size="9" fill="#333">+0.7pp</text>

  <text x="260" y="122" font-size="9" fill="#333">Enterprise</text>
  <text x="340" y="122" font-size="9" fill="#333">11.5%</text>
  <text x="400" y="122" font-size="9" fill="#333">12.0%</text>
  <text x="470" y="122" font-size="9" fill="#333">+0.5pp</text>

  <!-- Fork arrows -->
  <line x1="300" y1="140" x2="175" y2="180" stroke="#D4A04A" stroke-width="2"/>
  <polygon points="172,175 172,184 180,180" fill="#D4A04A"/>
  <line x1="450" y1="140" x2="575" y2="180" stroke="#4682B4" stroke-width="2"/>
  <polygon points="570,176 578,180 578,184" fill="#4682B4"/>

  <!-- LEFT PIPELINE: PAST Only -->
  <rect x="30" y="185" width="290" height="280" rx="8" fill="none" stroke="#D4A04A" stroke-width="2.5" stroke-dasharray="0"/>
  <text x="175" y="205" text-anchor="middle" font-size="13" font-weight="bold" fill="#D4A04A">PAST Only</text>

  <rect x="55" y="215" width="240" height="40" rx="4" fill="#D4A04A" opacity="0.15"/>
  <text x="175" y="233" text-anchor="middle" font-size="10" fill="#333">Step 3: "Identify the tier with the</text>
  <text x="175" y="247" text-anchor="middle" font-size="10" fill="#333" font-weight="bold">highest churn"</text>

  <!-- Arrow -->
  <line x1="175" y1="255" x2="175" y2="275" stroke="#6B7B8D" stroke-width="1.5"/>
  <polygon points="170,273 175,282 180,273" fill="#6B7B8D"/>

  <!-- Method box -->
  <rect x="55" y="282" width="240" height="30" rx="4" fill="#FFF3E0" stroke="#D4A04A" stroke-width="1"/>
  <text x="175" y="302" text-anchor="middle" font-size="10" fill="#8B6914">Method: Absolute rate (model's default)</text>

  <!-- Arrow -->
  <line x1="175" y1="312" x2="175" y2="330" stroke="#6B7B8D" stroke-width="1.5"/>
  <polygon points="170,328 175,337 180,328" fill="#6B7B8D"/>

  <!-- Result -->
  <rect x="55" y="337" width="240" height="40" rx="4" fill="#FFEBEE" stroke="#C62828" stroke-width="1.5"/>
  <text x="175" y="355" text-anchor="middle" font-size="12" font-weight="bold" fill="#C62828">Enterprise (12.0%)</text>
  <text x="175" y="370" text-anchor="middle" font-size="9" fill="#C62828">Highest absolute rate</text>

  <!-- Red X indicator (shape, not just color) -->
  <circle cx="55" cy="357" r="12" fill="#C62828"/>
  <text x="55" y="362" text-anchor="middle" font-size="14" font-weight="bold" fill="white">✗</text>

  <!-- Arrow -->
  <line x1="175" y1="377" x2="175" y2="395" stroke="#6B7B8D" stroke-width="1.5"/>
  <polygon points="170,393 175,402 180,393" fill="#6B7B8D"/>

  <!-- Business decision -->
  <rect x="55" y="402" width="240" height="45" rx="4" fill="#C62828" opacity="0.1" stroke="#C62828" stroke-width="1"/>
  <text x="175" y="420" text-anchor="middle" font-size="10" fill="#C62828" font-weight="bold">Business Decision:</text>
  <text x="175" y="436" text-anchor="middle" font-size="10" fill="#C62828">"Focus retention on Enterprise"</text>


  <!-- RIGHT PIPELINE: PAST + PLFR -->
  <rect x="430" y="185" width="290" height="280" rx="8" fill="none" stroke="#4682B4" stroke-width="2.5"/>
  <text x="575" y="205" text-anchor="middle" font-size="13" font-weight="bold" fill="#4682B4">PAST + PLFR</text>

  <rect x="455" y="215" width="240" height="40" rx="4" fill="#4682B4" opacity="0.1"/>
  <text x="575" y="233" text-anchor="middle" font-size="10" fill="#333">Logic: "Use absolute delta,</text>
  <text x="575" y="247" text-anchor="middle" font-size="10" fill="#333" font-weight="bold">not absolute level"</text>

  <!-- Arrow -->
  <line x1="575" y1="255" x2="575" y2="275" stroke="#6B7B8D" stroke-width="1.5"/>
  <polygon points="570,273 575,282 580,273" fill="#6B7B8D"/>

  <!-- Method box -->
  <rect x="455" y="282" width="240" height="30" rx="4" fill="#E3F2FD" stroke="#4682B4" stroke-width="1"/>
  <text x="575" y="302" text-anchor="middle" font-size="10" fill="#1565C0">Method: Delta comparison (specified)</text>

  <!-- Arrow -->
  <line x1="575" y1="312" x2="575" y2="330" stroke="#6B7B8D" stroke-width="1.5"/>
  <polygon points="570,328 575,337 580,328" fill="#6B7B8D"/>

  <!-- Result -->
  <rect x="455" y="337" width="240" height="40" rx="4" fill="#E8F5E9" stroke="#2E7D32" stroke-width="1.5"/>
  <text x="575" y="355" text-anchor="middle" font-size="12" font-weight="bold" fill="#2E7D32">Free (+5.5pp)</text>
  <text x="575" y="370" text-anchor="middle" font-size="9" fill="#2E7D32">Highest churn increase</text>

  <!-- Green check indicator (shape, not just color) -->
  <circle cx="455" cy="357" r="12" fill="#2E7D32"/>
  <text x="455" y="362" text-anchor="middle" font-size="14" font-weight="bold" fill="white">✓</text>

  <!-- Arrow -->
  <line x1="575" y1="377" x2="575" y2="395" stroke="#6B7B8D" stroke-width="1.5"/>
  <polygon points="570,393 575,402 580,393" fill="#6B7B8D"/>

  <!-- Business decision -->
  <rect x="455" y="402" width="240" height="45" rx="4" fill="#2E7D32" opacity="0.1" stroke="#2E7D32" stroke-width="1"/>
  <text x="575" y="420" text-anchor="middle" font-size="10" fill="#2E7D32" font-weight="bold">Business Decision:</text>
  <text x="575" y="436" text-anchor="middle" font-size="10" fill="#2E7D32">"Investigate Free-tier changes"</text>

  <!-- Bottom callout -->
  <rect x="125" y="485" width="500" height="45" rx="6" fill="#333" opacity="0.05" stroke="#333" stroke-width="1"/>
  <text x="375" y="505" text-anchor="middle" font-size="12" font-weight="bold" fill="#333">Same data. Same model. Opposite decisions.</text>
  <text x="375" y="522" text-anchor="middle" font-size="11" fill="#6B7B8D">The architecture — not the model — is the difference.</text>
</svg>
